<?xml version="1.0" encoding="UTF-8"?>
<!DOCTYPE svg PUBLIC "-//W3C//DTD SVG 1.1//EN" "http://www.w3.org/Graphics/SVG/1.1/DTD/svg11.dtd">
<!-- Creator: CorelDRAW -->
<svg xmlns="http://www.w3.org/2000/svg" xml:space="preserve" width="16.7406mm" height="16.0222mm" version="1.1" style="shape-rendering:geometricPrecision; text-rendering:geometricPrecision; image-rendering:optimizeQuality; fill-rule:evenodd; clip-rule:evenodd"
viewBox="0 0 1983.83 1898.7"
 xmlns:xlink="http://www.w3.org/1999/xlink"
 xmlns:xodm="http://www.corel.com/coreldraw/odm/2003">
 <defs>
  <style type="text/css">
   <![CDATA[
    .fil0 {fill:#FEFEFE;fill-rule:nonzero}
    .fil1 {fill:black;fill-rule:nonzero}
   ]]>
  </style>
 </defs>
 <g id="Capa_x0020_1">
  <metadata id="CorelCorpID_0Corel-Layer"/>
  <g id="_2230628579136">
   <path class="fil0" d="M1983.83 949.36c0,100.89 -126.33,180.6 -155.89,271.65 -30.62,94.36 23.67,232.88 -33.48,311.44 -57.76,79.35 -206.66,70.23 -286.02,127.95 -78.52,57.15 -115.58,201.92 -209.92,232.56 -91.05,29.57 -205.69,-64.81 -306.57,-64.81 -100.94,0 -215.57,94.38 -306.62,64.81 -94.36,-30.65 -131.39,-175.41 -209.94,-232.56 -79.35,-57.72 -228.25,-48.6 -286,-127.95 -57.15,-78.56 -2.87,-217.08 -33.5,-311.44 -29.57,-91.05 -155.89,-170.75 -155.89,-271.65 0,-100.92 126.33,-180.62 155.89,-271.67 30.63,-94.35 -23.65,-232.9 33.5,-311.44 57.75,-79.33 206.65,-70.23 286,-127.95 78.56,-57.15 115.58,-201.93 209.94,-232.56 91.05,-29.57 205.68,64.81 306.62,64.81 100.88,0 215.52,-94.38 306.57,-64.81 94.34,30.63 131.4,175.41 209.92,232.56 79.36,57.72 228.26,48.62 286.02,127.95 57.14,78.54 2.86,217.09 33.48,311.44 29.57,91.05 155.89,170.75 155.89,271.67z"/>
   <polygon class="fil1" points="864.48,1416.02 510.17,1094.03 638.86,952.39 843.78,1138.6 1325.39,548.11 1473.68,669.04 "/>
  </g>
 </g>
</svg>
